<svg xmlns="http://www.w3.org/2000/svg" width="30" height="39" fill="none" viewBox="0 0 39 39"><path stroke="#fff" stroke-linecap="round" stroke-miterlimit="10" stroke-width="2.687" d="M34.1587 24.8889C34.0747 24.5866 34.2595 24.1668 34.4358 23.8645C34.4897 23.7746 34.5485 23.6877 34.6121 23.6042C36.1203 21.3631 36.9271 18.7236 36.9295 16.0222C36.9547 8.28059 30.4222 2 22.3448 2C15.3001 2 9.42256 6.79441 8.04553 13.159C7.83953 14.1023 7.73538 15.065 7.73486 16.0306C7.73486 23.7806 14.0155 30.2291 22.0929 30.2291C23.3776 30.2291 25.1073 29.8428 26.0561 29.5826C27.0049 29.3223 27.9453 28.978 28.1888 28.8856C28.4384 28.7915 28.7029 28.7432 28.9696 28.7429C29.2607 28.7418 29.549 28.7989 29.8177 28.9108L34.5785 30.5985C34.6829 30.6427 34.7932 30.671 34.906 30.6825C35.0841 30.6825 35.255 30.6117 35.381 30.4858C35.5069 30.3598 35.5777 30.1889 35.5777 30.0108C35.5718 29.9339 35.5578 29.8579 35.5357 29.7841L34.1587 24.8889Z"/><path stroke="#fff" stroke-linecap="round" stroke-miterlimit="10" stroke-width="2.687" d="M3.55005 17.4497C2.44879 19.4281 1.91605 21.6726 2.01074 23.9348C2.10543 26.1971 2.82385 28.3892 4.08658 30.2687C4.28054 30.5617 4.3897 30.7884 4.35611 30.9404C4.32253 31.0924 3.35441 36.1353 3.35441 36.1353C3.33112 36.2533 3.33996 36.3754 3.37998 36.4889C3.42001 36.6023 3.48976 36.7029 3.58195 36.7802C3.70497 36.8782 3.85793 36.9309 4.01521 36.9296C4.09926 36.9299 4.18245 36.9127 4.25955 36.8792L8.97923 35.032C9.30406 34.9039 9.66643 34.91 9.98681 35.0488C11.5771 35.6685 13.3353 36.0564 15.0944 36.0564C17.4549 36.0589 19.774 35.4363 21.8158 34.252"/></svg>