<svg xmlns="http://www.w3.org/2000/svg" width="30" height="30" fill="none" viewBox="0 0 44 30"><path stroke="#fff" stroke-linecap="round" stroke-linejoin="round" stroke-width="4.109" d="M11.7499 3.625H40.9999"/><path stroke="#fff" stroke-linecap="round" stroke-linejoin="round" stroke-width="4.109" d="M11.7498 15H40.9998"/><path stroke="#fff" stroke-linecap="round" stroke-linejoin="round" stroke-width="4.109" d="M11.7498 26.375H40.9998"/><path stroke="#fff" stroke-linecap="round" stroke-linejoin="round" stroke-width="2.74" d="M3.625 5.25C4.52246 5.25 5.25 4.52246 5.25 3.625C5.25 2.72754 4.52246 2 3.625 2C2.72754 2 2 2.72754 2 3.625C2 4.52246 2.72754 5.25 3.625 5.25Z"/><path stroke="#fff" stroke-linecap="round" stroke-linejoin="round" stroke-width="2.74" d="M3.625 16.625C4.52246 16.625 5.25 15.8975 5.25 15C5.25 14.1025 4.52246 13.375 3.625 13.375C2.72754 13.375 2 14.1025 2 15C2 15.8975 2.72754 16.625 3.625 16.625Z"/><path stroke="#fff" stroke-linecap="round" stroke-linejoin="round" stroke-width="2.74" d="M3.625 28C4.52246 28 5.25 27.2725 5.25 26.375C5.25 25.4775 4.52246 24.75 3.625 24.75C2.72754 24.75 2 25.4775 2 26.375C2 27.2725 2.72754 28 3.625 28Z"/></svg>