<svg xmlns="http://www.w3.org/2000/svg" width="30" height="30" fill="none" viewBox="0 0 46 39"><path stroke="#fff" stroke-linecap="round" stroke-linejoin="round" stroke-width="3" d="M28.25 28.25V32.625C28.25 33.7853 27.7891 34.8981 26.9686 35.7186C26.1481 36.5391 25.0353 37 23.875 37H6.375C5.21468 37 4.10188 36.5391 3.28141 35.7186C2.46094 34.8981 2 33.7853 2 32.625V6.375C2 5.21468 2.46094 4.10188 3.28141 3.28141C4.10188 2.46094 5.21468 2 6.375 2H23C25.4161 2 28.25 3.95891 28.25 6.375V10.75"/><path stroke="#fff" stroke-linecap="round" stroke-linejoin="round" stroke-width="3" d="M35.25 28.25L44 19.5L35.25 10.75"/><path stroke="#fff" stroke-linecap="round" stroke-linejoin="round" stroke-width="3" d="M14.25 19.5H42.25"/></svg>