<svg xmlns="http://www.w3.org/2000/svg" width="28" height="35" fill="none" viewBox="0 0 28 38"><path stroke="#8B8B8B" stroke-linecap="round" stroke-linejoin="round" stroke-width="3" d="M20 15.125V8C20 6.4087 19.3679 4.88258 18.2426 3.75736C17.1174 2.63214 15.5913 2 14 2C12.4087 2 10.8826 2.63214 9.75736 3.75736C8.63214 4.88258 8 6.4087 8 8V15.125"/><path stroke="#8B8B8B" stroke-linecap="round" stroke-linejoin="round" stroke-width="3" d="M22.4 15.125H5.6C3.61177 15.125 2 16.7368 2 18.725V31.925C2 33.9132 3.61177 35.525 5.6 35.525H22.4C24.3882 35.525 26 33.9132 26 31.925V18.725C26 16.7368 24.3882 15.125 22.4 15.125Z"/></svg>