<svg width="22" height="20" viewBox="0 0 17 16" fill="none" xmlns="http://www.w3.org/2000/svg">
<path d="M5.05885 7.30613C5.97832 9.11315 7.45969 10.5881 9.26672 11.514L10.6715 10.1092C10.8439 9.93685 11.0993 9.87938 11.3228 9.956C12.0379 10.1923 12.8105 10.32 13.6023 10.32C13.9535 10.32 14.2408 10.6073 14.2408 10.9585V13.1869C14.2408 13.5381 13.9535 13.8255 13.6023 13.8255C7.60655 13.8255 2.74739 8.96629 2.74739 2.97055C2.74739 2.61937 3.03473 2.33203 3.38591 2.33203H5.62075C5.97193 2.33203 6.25927 2.61937 6.25927 2.97055C6.25927 3.76871 6.38697 4.53494 6.62323 5.25008C6.69347 5.47357 6.64238 5.72259 6.4636 5.90138L5.05885 7.30613Z" fill="#6F6F6F"/>
</svg>
