<svg xmlns="http://www.w3.org/2000/svg" width="30" height="47" fill="none" viewBox="0 0 46 47"><path stroke="#fff" stroke-linecap="round" stroke-linejoin="round" stroke-width="3" d="M23.635 17.1012C22.3094 16.9709 20.9756 17.2516 19.8165 17.9048C18.6573 18.558 17.7293 19.5518 17.1596 20.7501C16.5899 21.9484 16.4063 23.2927 16.6339 24.5989C16.8616 25.905 17.4894 27.1093 18.4313 28.0466C19.3732 28.984 20.5833 29.6088 21.8958 29.8353C23.2083 30.0619 24.5591 29.8792 25.7632 29.3122C26.9674 28.7453 27.966 27.8218 28.6223 26.6682C29.2787 25.5146 29.5607 24.1873 29.4298 22.8681C29.2805 21.3892 28.6221 20.0071 27.566 18.9561C26.5099 17.9051 25.1211 17.2498 23.635 17.1012ZM39.1921 23.5C39.188 24.1989 39.1364 24.8967 39.0377 25.5887L43.6018 29.1513C43.8006 29.3152 43.9345 29.544 43.9798 29.7969C44.025 30.0498 43.9788 30.3105 43.8492 30.5327L39.5313 37.9673C39.4002 38.1873 39.1952 38.3542 38.9525 38.4386C38.7099 38.523 38.4451 38.5194 38.2048 38.4284L33.6719 36.612C33.4219 36.5129 33.1512 36.4772 32.8839 36.5078C32.6166 36.5385 32.3612 36.6347 32.1404 36.7878C31.4486 37.2619 30.7217 37.683 29.9659 38.0477C29.7282 38.1626 29.5227 38.334 29.3674 38.5467C29.2121 38.7594 29.1119 39.0069 29.0754 39.2673L28.396 44.0787C28.3514 44.3328 28.2195 44.5636 28.0228 44.7316C27.8262 44.8997 27.577 44.9945 27.3178 45H18.6822C18.4273 44.9956 18.1815 44.905 17.9854 44.743C17.7892 44.581 17.6543 44.3573 17.603 44.1089L16.9246 39.3045C16.8865 39.0412 16.7836 38.7914 16.6251 38.5772C16.4665 38.363 16.2573 38.1911 16.016 38.0768C15.261 37.7142 14.5365 37.2918 13.8495 36.8139C13.6295 36.6616 13.3749 36.5661 13.1086 36.5362C12.8423 36.5062 12.5727 36.5426 12.324 36.6421L7.79219 38.4576C7.55203 38.5486 7.2873 38.5523 7.04463 38.4682C6.80196 38.384 6.59693 38.2173 6.46565 37.9974L2.14782 30.5628C2.01801 30.3407 1.97161 30.08 2.01691 29.827C2.0622 29.574 2.19624 29.3453 2.39516 29.1814L6.25264 26.1674C6.46397 26.0005 6.63006 25.7836 6.73584 25.5366C6.84162 25.2896 6.88374 25.0202 6.85836 24.7528C6.82202 24.3339 6.79981 23.9159 6.79981 23.497C6.79981 23.078 6.82101 22.6661 6.85836 22.2562C6.88096 21.9905 6.83678 21.7234 6.72981 21.4789C6.62283 21.2344 6.45642 21.0202 6.24557 20.8557L2.39011 17.8417C2.19442 17.677 2.06321 17.4491 2.01946 17.1978C1.97571 16.9465 2.02223 16.6879 2.15085 16.4673L6.46868 9.03271C6.5998 8.81268 6.80477 8.64577 7.04745 8.56141C7.29013 8.47704 7.55495 8.48064 7.79522 8.57157L12.3281 10.388C12.5781 10.4871 12.8488 10.5228 13.1161 10.4922C13.3834 10.4615 13.6388 10.3653 13.8596 10.2122C14.5514 9.73811 15.2783 9.31695 16.0341 8.95234C16.2718 8.8374 16.4773 8.66601 16.6326 8.45329C16.7879 8.24058 16.8881 7.99308 16.9246 7.73266L17.604 2.92128C17.6486 2.66718 17.7805 2.43639 17.9772 2.26836C18.1738 2.10032 18.423 2.00546 18.6822 2H27.3178C27.5727 2.00439 27.8185 2.09504 28.0146 2.25703C28.2108 2.41902 28.3457 2.64267 28.397 2.89114L29.0754 7.69549C29.1135 7.95878 29.2164 8.20863 29.3749 8.42281C29.5334 8.637 29.7427 8.80889 29.984 8.9232C30.739 9.28584 31.4635 9.70816 32.1505 10.1861C32.3705 10.3384 32.6251 10.4339 32.8914 10.4638C33.1577 10.4938 33.4273 10.4574 33.676 10.3579L38.2078 8.54243C38.448 8.45142 38.7127 8.44767 38.9554 8.53184C39.198 8.61602 39.4031 8.78271 39.5344 9.00257L43.8522 16.4371C43.982 16.6593 44.0284 16.92 43.9831 17.173C43.9378 17.426 43.8038 17.6547 43.6048 17.8186L39.7474 20.8326C39.5351 20.999 39.368 21.2156 39.2614 21.4627C39.1547 21.7097 39.1118 21.9794 39.1366 22.2472C39.1699 22.6631 39.1921 23.0811 39.1921 23.5Z"/></svg>