<svg width="25" height="30" viewBox="0 0 25 30" fill="none" xmlns="http://www.w3.org/2000/svg">
<path d="M3.03503 5.27344L4.30686 26.6377C4.36727 27.8722 5.22257 28.7741 6.34178 28.7741H18.0426C19.1662 28.7741 20.0056 27.8722 20.0775 26.6377L21.3493 5.27344" stroke="black" stroke-width="2" stroke-linecap="round" stroke-linejoin="round"/>
<path d="M1 5.27344H23.3841H1Z" fill="black"/>
<path d="M1 5.27344H23.3841" stroke="black" stroke-width="2" stroke-miterlimit="10" stroke-linecap="round"/>
<path d="M8.12208 5.27286V2.60233C8.12149 2.39173 8.16056 2.1831 8.23705 1.98842C8.31354 1.79374 8.42594 1.61685 8.56778 1.46794C8.70961 1.31903 8.87809 1.20103 9.06352 1.12072C9.24895 1.04041 9.44768 0.99939 9.64827 1.00001H14.7356C14.9361 0.99939 15.1349 1.04041 15.3203 1.12072C15.5057 1.20103 15.6742 1.31903 15.816 1.46794C15.9579 1.61685 16.0703 1.79374 16.1468 1.98842C16.2233 2.1831 16.2623 2.39173 16.2617 2.60233V5.27286" stroke="black" stroke-width="2" stroke-linecap="round" stroke-linejoin="round"/>
<path d="M12.1921 9.54492V24.4999" stroke="black" stroke-width="2" stroke-linecap="round" stroke-linejoin="round"/>
<path d="M7.61346 9.54492L8.12219 24.4999" stroke="black" stroke-width="2" stroke-linecap="round" stroke-linejoin="round"/>
<path d="M16.7705 9.54492L16.2618 24.4999" stroke="black" stroke-width="2" stroke-linecap="round" stroke-linejoin="round"/>
</svg>
